<svg xmlns="http://www.w3.org/2000/svg" width="1200" height="760" viewBox="0 0 1200 760"><rect width="1200" height="760" fill="#f7f3ec"/><rect x="30" y="30" width="1140" height="700" rx="34" fill="#fff" stroke="#24232918"/><text x="72" y="92" font-family="Arial" font-size="34" font-weight="800" fill="#242329">Calendar</text><text x="72" y="124" font-family="Arial" font-size="15" fill="#7a7580">Tasks, habits, workouts and journal entries in one view</text><g transform="translate(72 160)"><g fill="#f2eff9" stroke="#24232915"><rect width="128" height="92" rx="18"/><rect x="140" width="128" height="92" rx="18"/><rect x="280" width="128" height="92" rx="18"/><rect x="420" width="128" height="92" rx="18"/><rect x="560" width="128" height="92" rx="18"/><rect x="700" width="128" height="92" rx="18"/><rect x="840" width="128" height="92" rx="18"/></g><g fill="#fff" stroke="#24232915"><rect y="112" width="128" height="92" rx="18"/><rect x="140" y="112" width="128" height="92" rx="18"/><rect x="280" y="112" width="128" height="92" rx="18"/><rect x="420" y="112" width="128" height="92" rx="18"/><rect x="560" y="112" width="128" height="92" rx="18"/><rect x="700" y="112" width="128" height="92" rx="18"/><rect x="840" y="112" width="128" height="92" rx="18"/></g><g font-family="Arial" fill="#242329" font-size="20" font-weight="800"><text x="18" y="36">1</text><text x="158" y="36">2</text><text x="298" y="36">3</text><text x="438" y="36">4</text><text x="578" y="36">5</text><text x="718" y="36">6</text><text x="858" y="36">7</text></g><g font-family="Arial" font-size="12" fill="#7c5cff"><text x="18" y="66">2 tasks</text><text x="298" y="66">Workout</text><text x="438" y="66">Journal</text><text x="718" y="66">3 habits</text></g></g><rect x="820" y="430" width="300" height="210" rx="26" fill="#f7f3ec" stroke="#24232915"/><text x="852" y="475" font-family="Arial" font-size="22" font-weight="800" fill="#242329">Day detail</text><text x="852" y="512" font-family="Arial" font-size="14" fill="#7a7580">Tasks · Habits · Journal · Notes</text></svg>
