<svg xmlns="http://www.w3.org/2000/svg" width="1200" height="760" viewBox="0 0 1200 760">
  <defs><linearGradient id="bg" x1="0" y1="0" x2="1" y2="1"><stop stop-color="#f7f3ec"/><stop offset="1" stop-color="#ede7ff"/></linearGradient><filter id="s"><feDropShadow dx="0" dy="18" stdDeviation="24" flood-opacity=".13"/></filter></defs>
  <rect width="1200" height="760" fill="url(#bg)"/>
  <rect x="24" y="24" width="230" height="712" rx="28" fill="#ffffffaa" stroke="#24232922"/>
  <circle cx="70" cy="72" r="22" fill="#7c5cff"/><text x="70" y="80" text-anchor="middle" font-family="Arial" font-weight="800" font-size="24" fill="white">M</text>
  <text x="104" y="70" font-family="Arial" font-weight="800" font-size="18" fill="#242329">MultiProdTool</text><text x="104" y="90" font-family="Arial" font-size="12" fill="#7a7580">Unified workspace</text>
  <g font-family="Arial" font-size="15" fill="#242329"><rect x="44" y="134" width="190" height="40" rx="14" fill="#7c5cff22"/><text x="72" y="159">Today</text><text x="72" y="213">Notes</text><text x="72" y="260">Tasks</text><text x="72" y="307">Habits</text><text x="72" y="354">Workouts</text><text x="72" y="401">Journal</text><text x="72" y="448">Calendar</text><text x="72" y="495">Goals</text></g>
  <rect x="280" y="24" width="896" height="58" rx="20" fill="#ffffff77"/><text x="728" y="59" text-anchor="middle" font-family="Arial" font-size="14" fill="#7a7580">MultiProdTool · Dashboard</text>
  <rect x="280" y="110" width="560" height="118" rx="28" fill="#ffffffbb" stroke="#24232917" filter="url(#s)"/><text x="314" y="155" font-family="Arial" font-size="13" fill="#7a7580" font-weight="700">TODAY COMMAND CENTRE</text><text x="314" y="193" font-family="Arial" font-size="34" fill="#242329" font-weight="800">Monday, 29 June</text>
  <rect x="860" y="110" width="316" height="118" rx="28" fill="#ffffffbb" stroke="#24232917" filter="url(#s)"/><text x="892" y="154" font-family="Arial" font-size="20" fill="#242329" font-weight="800">Journal prompt</text><text x="892" y="184" font-family="Arial" font-size="14" fill="#7a7580">What is one win to remember?</text>
  <g filter="url(#s)"><rect x="280" y="256" width="280" height="190" rx="26" fill="#fff"/><rect x="586" y="256" width="280" height="190" rx="26" fill="#fff"/><rect x="892" y="256" width="284" height="190" rx="26" fill="#fff"/><rect x="280" y="470" width="280" height="190" rx="26" fill="#fff"/><rect x="586" y="470" width="280" height="190" rx="26" fill="#fff"/><rect x="892" y="470" width="284" height="190" rx="26" fill="#fff"/></g>
  <g font-family="Arial"><text x="312" y="300" font-size="20" font-weight="800" fill="#242329">Due today</text><text x="618" y="300" font-size="20" font-weight="800" fill="#242329">Agenda</text><text x="924" y="300" font-size="20" font-weight="800" fill="#242329">Goal progress</text><text x="312" y="514" font-size="20" font-weight="800" fill="#242329">Habits</text><text x="618" y="514" font-size="20" font-weight="800" fill="#242329">Workout</text><text x="924" y="514" font-size="20" font-weight="800" fill="#242329">Resources</text></g>
</svg>
