<svg xmlns="http://www.w3.org/2000/svg" width="1200" height="760" viewBox="0 0 1200 760"><rect width="1200" height="760" fill="#111114"/><rect x="40" y="40" width="1120" height="680" rx="36" fill="#202027" stroke="#ffffff1a"/><text x="86" y="104" font-family="Arial" font-size="34" font-weight="800" fill="#f4f1ec">Daily Journal</text><text x="86" y="136" font-family="Arial" font-size="15" fill="#a19ba9">Mood, energy, sleep, wins, challenges and gratitude</text><g fill="#2b2b34" stroke="#ffffff1a"><rect x="86" y="178" width="300" height="100" rx="24"/><rect x="410" y="178" width="300" height="100" rx="24"/><rect x="734" y="178" width="300" height="100" rx="24"/></g><g font-family="Arial"><text x="118" y="224" font-size="18" font-weight="800" fill="#f4f1ec">Mood 4/5</text><text x="442" y="224" font-size="18" font-weight="800" fill="#f4f1ec">Energy 3/5</text><text x="766" y="224" font-size="18" font-weight="800" fill="#f4f1ec">Sleep 5/5</text></g><g fill="#2b2b34" stroke="#ffffff1a"><rect x="86" y="316" width="300" height="150" rx="24"/><rect x="410" y="316" width="300" height="150" rx="24"/><rect x="734" y="316" width="300" height="150" rx="24"/><rect x="86" y="496" width="948" height="150" rx="24"/></g><g font-family="Arial" fill="#f4f1ec" font-size="20" font-weight="800"><text x="118" y="360">Wins</text><text x="442" y="360">Challenges</text><text x="766" y="360">Gratitude</text><text x="118" y="540">Freeform notes</text></g></svg>
